<mxfile host="app.diagrams.net" modified="2022-04-27T21:52:10.660Z" agent="5.0 (Macintosh; Intel Mac OS X 10_15_7) AppleWebKit/605.1.15 (KHTML, like Gecko) Version/15.4 Safari/605.1.15" etag="m_CWs5x4_H_KZo4OmS_b" version="17.4.6" type="github">
  <diagram id="kgpKYQtTHZ0yAKxKKP6v" name="Page-1">
    <mxGraphModel dx="663" dy="544" grid="1" gridSize="10" guides="1" tooltips="1" connect="1" arrows="1" fold="1" page="1" pageScale="1" pageWidth="850" pageHeight="1100" math="0" shadow="0">
      <root>
        <mxCell id="0" />
        <mxCell id="1" parent="0" />
        <mxCell id="KdJqu3Nx1skjZKSK4wLy-11" value="" style="rounded=1;whiteSpace=wrap;html=1;fillColor=#dae8fc;strokeColor=none;opacity=80;" vertex="1" parent="1">
          <mxGeometry x="230" y="120" width="425" height="390" as="geometry" />
        </mxCell>
        <mxCell id="KdJqu3Nx1skjZKSK4wLy-1" value="Sell a Stock" style="rounded=1;whiteSpace=wrap;html=1;" vertex="1" parent="1">
          <mxGeometry x="390" y="390" width="120" height="40" as="geometry" />
        </mxCell>
        <mxCell id="KdJqu3Nx1skjZKSK4wLy-3" value="Buy a Stock" style="rounded=1;whiteSpace=wrap;html=1;" vertex="1" parent="1">
          <mxGeometry x="520" y="390" width="120" height="40" as="geometry" />
        </mxCell>
        <mxCell id="KdJqu3Nx1skjZKSK4wLy-51" value="" style="edgeStyle=orthogonalEdgeStyle;rounded=0;orthogonalLoop=1;jettySize=auto;html=1;" edge="1" parent="1" source="KdJqu3Nx1skjZKSK4wLy-7" target="KdJqu3Nx1skjZKSK4wLy-36">
          <mxGeometry relative="1" as="geometry" />
        </mxCell>
        <mxCell id="KdJqu3Nx1skjZKSK4wLy-7" value="Search Stock" style="rounded=1;whiteSpace=wrap;html=1;" vertex="1" parent="1">
          <mxGeometry x="280" y="290" width="120" height="30" as="geometry" />
        </mxCell>
        <mxCell id="KdJqu3Nx1skjZKSK4wLy-9" value="Running" style="rounded=1;whiteSpace=wrap;html=1;" vertex="1" parent="1">
          <mxGeometry x="490" y="230" width="120" height="40" as="geometry" />
        </mxCell>
        <mxCell id="KdJqu3Nx1skjZKSK4wLy-10" value="Basic Display" style="rounded=1;whiteSpace=wrap;html=1;" vertex="1" parent="1">
          <mxGeometry x="240" y="185" width="120" height="40" as="geometry" />
        </mxCell>
        <mxCell id="KdJqu3Nx1skjZKSK4wLy-13" value="&lt;b style=&quot;font-size: 13px;&quot;&gt;Operation&lt;/b&gt;" style="text;html=1;strokeColor=none;fillColor=none;align=center;verticalAlign=middle;whiteSpace=wrap;rounded=0;opacity=80;fontSize=13;" vertex="1" parent="1">
          <mxGeometry x="270" y="130" width="60" height="30" as="geometry" />
        </mxCell>
        <mxCell id="KdJqu3Nx1skjZKSK4wLy-17" value="buyStock()" style="text;html=1;strokeColor=none;fillColor=none;align=center;verticalAlign=middle;whiteSpace=wrap;rounded=0;opacity=80;" vertex="1" parent="1">
          <mxGeometry x="570" y="360" width="60" height="30" as="geometry" />
        </mxCell>
        <mxCell id="KdJqu3Nx1skjZKSK4wLy-19" value="" style="endArrow=classic;html=1;rounded=0;startArrow=none;" edge="1" parent="1" target="KdJqu3Nx1skjZKSK4wLy-10">
          <mxGeometry width="50" height="50" relative="1" as="geometry">
            <mxPoint x="390" y="205" as="sourcePoint" />
            <mxPoint x="370" y="260" as="targetPoint" />
          </mxGeometry>
        </mxCell>
        <mxCell id="KdJqu3Nx1skjZKSK4wLy-22" value="with main()" style="text;html=1;strokeColor=none;fillColor=none;align=center;verticalAlign=middle;whiteSpace=wrap;rounded=0;opacity=80;" vertex="1" parent="1">
          <mxGeometry x="540" y="262.5" width="80" height="30" as="geometry" />
        </mxCell>
        <mxCell id="KdJqu3Nx1skjZKSK4wLy-20" value="displayWelcome()&lt;br&gt;displayHome()" style="text;html=1;strokeColor=none;fillColor=none;align=right;verticalAlign=middle;whiteSpace=wrap;rounded=0;opacity=80;" vertex="1" parent="1">
          <mxGeometry x="410" y="190" width="60" height="30" as="geometry" />
        </mxCell>
        <mxCell id="KdJqu3Nx1skjZKSK4wLy-24" value="" style="endArrow=none;html=1;rounded=0;exitX=0;exitY=0.5;exitDx=0;exitDy=0;" edge="1" parent="1" source="KdJqu3Nx1skjZKSK4wLy-9" target="KdJqu3Nx1skjZKSK4wLy-20">
          <mxGeometry width="50" height="50" relative="1" as="geometry">
            <mxPoint x="490" y="250" as="sourcePoint" />
            <mxPoint x="360" y="250" as="targetPoint" />
          </mxGeometry>
        </mxCell>
        <mxCell id="KdJqu3Nx1skjZKSK4wLy-34" value="" style="endArrow=classic;html=1;rounded=0;exitX=0;exitY=0.5;exitDx=0;exitDy=0;entryX=0.5;entryY=0;entryDx=0;entryDy=0;startArrow=none;" edge="1" parent="1" source="KdJqu3Nx1skjZKSK4wLy-37" target="KdJqu3Nx1skjZKSK4wLy-7">
          <mxGeometry width="50" height="50" relative="1" as="geometry">
            <mxPoint x="320" y="310" as="sourcePoint" />
            <mxPoint x="430" y="255" as="targetPoint" />
          </mxGeometry>
        </mxCell>
        <mxCell id="KdJqu3Nx1skjZKSK4wLy-35" value="" style="endArrow=classic;html=1;rounded=0;entryX=0.433;entryY=1.025;entryDx=0;entryDy=0;entryPerimeter=0;exitX=0.5;exitY=0;exitDx=0;exitDy=0;startArrow=none;" edge="1" parent="1" source="KdJqu3Nx1skjZKSK4wLy-36" target="KdJqu3Nx1skjZKSK4wLy-10">
          <mxGeometry width="50" height="50" relative="1" as="geometry">
            <mxPoint x="320" y="310" as="sourcePoint" />
            <mxPoint x="370" y="260" as="targetPoint" />
            <Array as="points" />
          </mxGeometry>
        </mxCell>
        <mxCell id="KdJqu3Nx1skjZKSK4wLy-37" value="search()&lt;br&gt;parse()" style="text;html=1;strokeColor=none;fillColor=none;align=center;verticalAlign=middle;whiteSpace=wrap;rounded=0;opacity=80;" vertex="1" parent="1">
          <mxGeometry x="390" y="250" width="60" height="30" as="geometry" />
        </mxCell>
        <mxCell id="KdJqu3Nx1skjZKSK4wLy-49" value="" style="rounded=1;whiteSpace=wrap;html=1;gradientColor=#ffffff;strokeWidth=1;fillColor=none;" vertex="1" parent="1">
          <mxGeometry x="370" y="360" width="280" height="80" as="geometry" />
        </mxCell>
        <mxCell id="KdJqu3Nx1skjZKSK4wLy-38" value="" style="endArrow=none;html=1;rounded=0;exitX=0;exitY=0.5;exitDx=0;exitDy=0;entryX=0.5;entryY=0;entryDx=0;entryDy=0;" edge="1" parent="1" source="KdJqu3Nx1skjZKSK4wLy-9" target="KdJqu3Nx1skjZKSK4wLy-37">
          <mxGeometry width="50" height="50" relative="1" as="geometry">
            <mxPoint x="490" y="250" as="sourcePoint" />
            <mxPoint x="300" y="300" as="targetPoint" />
          </mxGeometry>
        </mxCell>
        <mxCell id="KdJqu3Nx1skjZKSK4wLy-36" value="displayStock()" style="text;html=1;strokeColor=none;fillColor=none;align=center;verticalAlign=middle;whiteSpace=wrap;rounded=0;opacity=80;" vertex="1" parent="1">
          <mxGeometry x="260" y="240" width="60" height="30" as="geometry" />
        </mxCell>
        <mxCell id="KdJqu3Nx1skjZKSK4wLy-39" value="" style="endArrow=none;html=1;rounded=0;entryX=0.433;entryY=1.025;entryDx=0;entryDy=0;entryPerimeter=0;exitX=0.5;exitY=0;exitDx=0;exitDy=0;" edge="1" parent="1" source="KdJqu3Nx1skjZKSK4wLy-7" target="KdJqu3Nx1skjZKSK4wLy-36">
          <mxGeometry width="50" height="50" relative="1" as="geometry">
            <mxPoint x="300" y="300" as="sourcePoint" />
            <mxPoint x="291.96000000000004" y="226" as="targetPoint" />
            <Array as="points">
              <mxPoint x="300" y="290" />
            </Array>
          </mxGeometry>
        </mxCell>
        <mxCell id="KdJqu3Nx1skjZKSK4wLy-41" value="" style="endArrow=classic;html=1;rounded=0;entryX=0.5;entryY=0;entryDx=0;entryDy=0;exitX=1;exitY=1;exitDx=0;exitDy=0;" edge="1" parent="1" source="KdJqu3Nx1skjZKSK4wLy-7" target="KdJqu3Nx1skjZKSK4wLy-1">
          <mxGeometry width="50" height="50" relative="1" as="geometry">
            <mxPoint x="300" y="330" as="sourcePoint" />
            <mxPoint x="450" y="360" as="targetPoint" />
          </mxGeometry>
        </mxCell>
        <mxCell id="KdJqu3Nx1skjZKSK4wLy-42" value="" style="endArrow=classic;html=1;rounded=0;exitX=1;exitY=0.25;exitDx=0;exitDy=0;entryX=0.408;entryY=0;entryDx=0;entryDy=0;entryPerimeter=0;" edge="1" parent="1" source="KdJqu3Nx1skjZKSK4wLy-7" target="KdJqu3Nx1skjZKSK4wLy-3">
          <mxGeometry width="50" height="50" relative="1" as="geometry">
            <mxPoint x="320" y="310" as="sourcePoint" />
            <mxPoint x="370" y="260" as="targetPoint" />
            <Array as="points" />
          </mxGeometry>
        </mxCell>
        <mxCell id="KdJqu3Nx1skjZKSK4wLy-48" value="sellStock()" style="text;html=1;strokeColor=none;fillColor=none;align=center;verticalAlign=middle;whiteSpace=wrap;rounded=0;opacity=80;" vertex="1" parent="1">
          <mxGeometry x="450" y="360" width="60" height="30" as="geometry" />
        </mxCell>
        <mxCell id="KdJqu3Nx1skjZKSK4wLy-50" value="Trading Simulator" style="text;html=1;strokeColor=none;fillColor=none;align=center;verticalAlign=middle;whiteSpace=wrap;rounded=0;" vertex="1" parent="1">
          <mxGeometry x="530" y="330" width="110" height="30" as="geometry" />
        </mxCell>
        <mxCell id="KdJqu3Nx1skjZKSK4wLy-53" value="Favorites" style="rounded=1;whiteSpace=wrap;html=1;" vertex="1" parent="1">
          <mxGeometry x="280" y="450" width="120" height="40" as="geometry" />
        </mxCell>
        <mxCell id="KdJqu3Nx1skjZKSK4wLy-55" value="" style="endArrow=classic;html=1;rounded=0;exitX=0.5;exitY=1;exitDx=0;exitDy=0;entryX=0.5;entryY=0;entryDx=0;entryDy=0;" edge="1" parent="1" source="KdJqu3Nx1skjZKSK4wLy-7" target="KdJqu3Nx1skjZKSK4wLy-53">
          <mxGeometry width="50" height="50" relative="1" as="geometry">
            <mxPoint x="295" y="405" as="sourcePoint" />
            <mxPoint x="345" y="355" as="targetPoint" />
          </mxGeometry>
        </mxCell>
        <mxCell id="KdJqu3Nx1skjZKSK4wLy-57" value="addToList()&lt;br&gt;removeFromList()" style="text;html=1;strokeColor=none;fillColor=none;align=right;verticalAlign=middle;whiteSpace=wrap;rounded=0;opacity=80;" vertex="1" parent="1">
          <mxGeometry x="280" y="370" width="60" height="30" as="geometry" />
        </mxCell>
        <mxCell id="KdJqu3Nx1skjZKSK4wLy-58" value="addToList()&lt;br&gt;removeFromList()" style="text;html=1;strokeColor=none;fillColor=none;align=center;verticalAlign=middle;whiteSpace=wrap;rounded=0;opacity=80;" vertex="1" parent="1">
          <mxGeometry x="412.5" y="320" width="60" height="30" as="geometry" />
        </mxCell>
        <mxCell id="KdJqu3Nx1skjZKSK4wLy-60" value="" style="endArrow=classic;html=1;rounded=0;entryX=0.5;entryY=1;entryDx=0;entryDy=0;" edge="1" parent="1" target="KdJqu3Nx1skjZKSK4wLy-61">
          <mxGeometry width="50" height="50" relative="1" as="geometry">
            <mxPoint x="550" y="230" as="sourcePoint" />
            <mxPoint x="570" y="190" as="targetPoint" />
          </mxGeometry>
        </mxCell>
        <mxCell id="KdJqu3Nx1skjZKSK4wLy-61" value="Top Gainers &amp;amp; Losers" style="rounded=1;whiteSpace=wrap;html=1;" vertex="1" parent="1">
          <mxGeometry x="490" y="150" width="140" height="40" as="geometry" />
        </mxCell>
        <mxCell id="KdJqu3Nx1skjZKSK4wLy-63" value="topGainerAndLoser();" style="text;html=1;strokeColor=none;fillColor=none;align=center;verticalAlign=middle;whiteSpace=wrap;rounded=0;" vertex="1" parent="1">
          <mxGeometry x="530" y="200" width="60" height="30" as="geometry" />
        </mxCell>
      </root>
    </mxGraphModel>
  </diagram>
</mxfile>
